<?xml version="1.0" standalone="no" ?>
<!DOCTYPE svg PUBLIC "-//W3C//DTD SVG 1.1//EN" "http://www.w3.org/Graphics/SVG/1.1/DTD/svg11.dtd">
<svg width="422" height="30" viewBox="0 0 422 30" version="1.1" xmlns="http://www.w3.org/2000/svg">
	<desc>10VUQ4P3OI1773404315</desc>
	<g id="bars" fill="rgb(0,0,0)" stroke="none">
		<rect x="0" y="0" width="4" height="30" />
		<rect x="6" y="0" width="2" height="30" />
		<rect x="12" y="0" width="2" height="30" />
		<rect x="22" y="0" width="2" height="30" />
		<rect x="28" y="0" width="6" height="30" />
		<rect x="38" y="0" width="4" height="30" />
		<rect x="44" y="0" width="2" height="30" />
		<rect x="50" y="0" width="6" height="30" />
		<rect x="58" y="0" width="4" height="30" />
		<rect x="66" y="0" width="6" height="30" />
		<rect x="74" y="0" width="2" height="30" />
		<rect x="78" y="0" width="4" height="30" />
		<rect x="88" y="0" width="4" height="30" />
		<rect x="94" y="0" width="6" height="30" />
		<rect x="102" y="0" width="6" height="30" />
		<rect x="110" y="0" width="4" height="30" />
		<rect x="116" y="0" width="2" height="30" />
		<rect x="124" y="0" width="6" height="30" />
		<rect x="132" y="0" width="4" height="30" />
		<rect x="140" y="0" width="2" height="30" />
		<rect x="146" y="0" width="6" height="30" />
		<rect x="154" y="0" width="6" height="30" />
		<rect x="162" y="0" width="6" height="30" />
		<rect x="170" y="0" width="4" height="30" />
		<rect x="176" y="0" width="4" height="30" />
		<rect x="184" y="0" width="2" height="30" />
		<rect x="188" y="0" width="6" height="30" />
		<rect x="198" y="0" width="2" height="30" />
		<rect x="206" y="0" width="6" height="30" />
		<rect x="214" y="0" width="4" height="30" />
		<rect x="220" y="0" width="4" height="30" />
		<rect x="230" y="0" width="2" height="30" />
		<rect x="238" y="0" width="2" height="30" />
		<rect x="242" y="0" width="2" height="30" />
		<rect x="246" y="0" width="6" height="30" />
		<rect x="254" y="0" width="8" height="30" />
		<rect x="264" y="0" width="2" height="30" />
		<rect x="270" y="0" width="6" height="30" />
		<rect x="280" y="0" width="4" height="30" />
		<rect x="286" y="0" width="2" height="30" />
		<rect x="296" y="0" width="4" height="30" />
		<rect x="302" y="0" width="2" height="30" />
		<rect x="308" y="0" width="4" height="30" />
		<rect x="318" y="0" width="2" height="30" />
		<rect x="322" y="0" width="2" height="30" />
		<rect x="330" y="0" width="2" height="30" />
		<rect x="334" y="0" width="4" height="30" />
		<rect x="344" y="0" width="6" height="30" />
		<rect x="352" y="0" width="2" height="30" />
		<rect x="356" y="0" width="6" height="30" />
		<rect x="366" y="0" width="4" height="30" />
		<rect x="374" y="0" width="6" height="30" />
		<rect x="384" y="0" width="4" height="30" />
		<rect x="392" y="0" width="2" height="30" />
		<rect x="396" y="0" width="4" height="30" />
		<rect x="406" y="0" width="6" height="30" />
		<rect x="414" y="0" width="2" height="30" />
		<rect x="418" y="0" width="4" height="30" />
	</g>
</svg>
