<?xml version="1.0" standalone="no" ?>
<!DOCTYPE svg PUBLIC "-//W3C//DTD SVG 1.1//EN" "http://www.w3.org/Graphics/SVG/1.1/DTD/svg11.dtd">
<svg width="422" height="30" viewBox="0 0 422 30" version="1.1" xmlns="http://www.w3.org/2000/svg">
	<desc>2_JDAMNZDG1773376658</desc>
	<g id="bars" fill="rgb(0,0,0)" stroke="none">
		<rect x="0" y="0" width="4" height="30" />
		<rect x="6" y="0" width="2" height="30" />
		<rect x="12" y="0" width="2" height="30" />
		<rect x="22" y="0" width="4" height="30" />
		<rect x="30" y="0" width="6" height="30" />
		<rect x="40" y="0" width="2" height="30" />
		<rect x="44" y="0" width="2" height="30" />
		<rect x="48" y="0" width="2" height="30" />
		<rect x="54" y="0" width="4" height="30" />
		<rect x="66" y="0" width="2" height="30" />
		<rect x="70" y="0" width="4" height="30" />
		<rect x="76" y="0" width="6" height="30" />
		<rect x="88" y="0" width="2" height="30" />
		<rect x="92" y="0" width="4" height="30" />
		<rect x="102" y="0" width="2" height="30" />
		<rect x="110" y="0" width="2" height="30" />
		<rect x="114" y="0" width="2" height="30" />
		<rect x="122" y="0" width="4" height="30" />
		<rect x="132" y="0" width="2" height="30" />
		<rect x="136" y="0" width="6" height="30" />
		<rect x="144" y="0" width="4" height="30" />
		<rect x="154" y="0" width="2" height="30" />
		<rect x="158" y="0" width="6" height="30" />
		<rect x="170" y="0" width="4" height="30" />
		<rect x="176" y="0" width="6" height="30" />
		<rect x="184" y="0" width="4" height="30" />
		<rect x="194" y="0" width="2" height="30" />
		<rect x="198" y="0" width="2" height="30" />
		<rect x="202" y="0" width="4" height="30" />
		<rect x="212" y="0" width="2" height="30" />
		<rect x="220" y="0" width="4" height="30" />
		<rect x="226" y="0" width="2" height="30" />
		<rect x="234" y="0" width="2" height="30" />
		<rect x="242" y="0" width="2" height="30" />
		<rect x="246" y="0" width="6" height="30" />
		<rect x="254" y="0" width="8" height="30" />
		<rect x="264" y="0" width="2" height="30" />
		<rect x="270" y="0" width="6" height="30" />
		<rect x="280" y="0" width="4" height="30" />
		<rect x="286" y="0" width="2" height="30" />
		<rect x="296" y="0" width="4" height="30" />
		<rect x="302" y="0" width="2" height="30" />
		<rect x="308" y="0" width="2" height="30" />
		<rect x="316" y="0" width="4" height="30" />
		<rect x="322" y="0" width="2" height="30" />
		<rect x="330" y="0" width="2" height="30" />
		<rect x="336" y="0" width="2" height="30" />
		<rect x="346" y="0" width="4" height="30" />
		<rect x="352" y="0" width="6" height="30" />
		<rect x="360" y="0" width="4" height="30" />
		<rect x="370" y="0" width="2" height="30" />
		<rect x="374" y="0" width="6" height="30" />
		<rect x="382" y="0" width="2" height="30" />
		<rect x="388" y="0" width="4" height="30" />
		<rect x="396" y="0" width="4" height="30" />
		<rect x="406" y="0" width="6" height="30" />
		<rect x="414" y="0" width="2" height="30" />
		<rect x="418" y="0" width="4" height="30" />
	</g>
</svg>
