<?xml version="1.0" standalone="no" ?>
<!DOCTYPE svg PUBLIC "-//W3C//DTD SVG 1.1//EN" "http://www.w3.org/Graphics/SVG/1.1/DTD/svg11.dtd">
<svg width="246" height="30" viewBox="0 0 246 30" version="1.1" xmlns="http://www.w3.org/2000/svg">
	<desc>asdfasdf</desc>
	<g id="bars" fill="rgb(0,0,0)" stroke="none">
		<rect x="0" y="0" width="4" height="30" />
		<rect x="6" y="0" width="2" height="30" />
		<rect x="12" y="0" width="2" height="30" />
		<rect x="22" y="0" width="2" height="30" />
		<rect x="28" y="0" width="2" height="30" />
		<rect x="32" y="0" width="4" height="30" />
		<rect x="44" y="0" width="2" height="30" />
		<rect x="48" y="0" width="8" height="30" />
		<rect x="60" y="0" width="2" height="30" />
		<rect x="66" y="0" width="2" height="30" />
		<rect x="76" y="0" width="2" height="30" />
		<rect x="82" y="0" width="4" height="30" />
		<rect x="88" y="0" width="2" height="30" />
		<rect x="92" y="0" width="4" height="30" />
		<rect x="104" y="0" width="2" height="30" />
		<rect x="110" y="0" width="2" height="30" />
		<rect x="116" y="0" width="2" height="30" />
		<rect x="120" y="0" width="4" height="30" />
		<rect x="132" y="0" width="2" height="30" />
		<rect x="136" y="0" width="8" height="30" />
		<rect x="148" y="0" width="2" height="30" />
		<rect x="154" y="0" width="2" height="30" />
		<rect x="164" y="0" width="2" height="30" />
		<rect x="170" y="0" width="4" height="30" />
		<rect x="176" y="0" width="2" height="30" />
		<rect x="180" y="0" width="4" height="30" />
		<rect x="192" y="0" width="2" height="30" />
		<rect x="198" y="0" width="4" height="30" />
		<rect x="204" y="0" width="4" height="30" />
		<rect x="212" y="0" width="4" height="30" />
		<rect x="220" y="0" width="4" height="30" />
		<rect x="230" y="0" width="6" height="30" />
		<rect x="238" y="0" width="2" height="30" />
		<rect x="242" y="0" width="4" height="30" />
	</g>
</svg>
