<?xml version="1.0" standalone="no" ?>
<!DOCTYPE svg PUBLIC "-//W3C//DTD SVG 1.1//EN" "http://www.w3.org/Graphics/SVG/1.1/DTD/svg11.dtd">
<svg width="378" height="30" viewBox="0 0 378 30" version="1.1" xmlns="http://www.w3.org/2000/svg">
	<desc>XEI4NR7N1773312067</desc>
	<g id="bars" fill="rgb(0,0,0)" stroke="none">
		<rect x="0" y="0" width="4" height="30" />
		<rect x="6" y="0" width="2" height="30" />
		<rect x="12" y="0" width="2" height="30" />
		<rect x="22" y="0" width="6" height="30" />
		<rect x="34" y="0" width="2" height="30" />
		<rect x="38" y="0" width="4" height="30" />
		<rect x="44" y="0" width="2" height="30" />
		<rect x="52" y="0" width="4" height="30" />
		<rect x="58" y="0" width="2" height="30" />
		<rect x="66" y="0" width="4" height="30" />
		<rect x="76" y="0" width="2" height="30" />
		<rect x="84" y="0" width="2" height="30" />
		<rect x="88" y="0" width="4" height="30" />
		<rect x="96" y="0" width="2" height="30" />
		<rect x="102" y="0" width="6" height="30" />
		<rect x="110" y="0" width="2" height="30" />
		<rect x="114" y="0" width="6" height="30" />
		<rect x="126" y="0" width="4" height="30" />
		<rect x="132" y="0" width="4" height="30" />
		<rect x="142" y="0" width="2" height="30" />
		<rect x="146" y="0" width="6" height="30" />
		<rect x="154" y="0" width="6" height="30" />
		<rect x="162" y="0" width="4" height="30" />
		<rect x="168" y="0" width="6" height="30" />
		<rect x="176" y="0" width="2" height="30" />
		<rect x="180" y="0" width="6" height="30" />
		<rect x="192" y="0" width="4" height="30" />
		<rect x="198" y="0" width="2" height="30" />
		<rect x="202" y="0" width="6" height="30" />
		<rect x="210" y="0" width="8" height="30" />
		<rect x="220" y="0" width="2" height="30" />
		<rect x="226" y="0" width="6" height="30" />
		<rect x="236" y="0" width="4" height="30" />
		<rect x="242" y="0" width="2" height="30" />
		<rect x="252" y="0" width="4" height="30" />
		<rect x="258" y="0" width="2" height="30" />
		<rect x="264" y="0" width="4" height="30" />
		<rect x="270" y="0" width="4" height="30" />
		<rect x="280" y="0" width="4" height="30" />
		<rect x="286" y="0" width="4" height="30" />
		<rect x="294" y="0" width="2" height="30" />
		<rect x="300" y="0" width="6" height="30" />
		<rect x="308" y="0" width="2" height="30" />
		<rect x="318" y="0" width="2" height="30" />
		<rect x="322" y="0" width="4" height="30" />
		<rect x="330" y="0" width="4" height="30" />
		<rect x="336" y="0" width="4" height="30" />
		<rect x="342" y="0" width="8" height="30" />
		<rect x="352" y="0" width="4" height="30" />
		<rect x="362" y="0" width="6" height="30" />
		<rect x="370" y="0" width="2" height="30" />
		<rect x="374" y="0" width="4" height="30" />
	</g>
</svg>
