<?xml version="1.0" encoding="UTF-8"?>
<svg xmlns="http://www.w3.org/2000/svg" version="1.1" width="300" height="300" viewBox="0 0 300 300"><rect x="0" y="0" width="300" height="300" fill="#ffffff"/><g transform="scale(10.345)"><g transform="translate(0,0)"><path fill-rule="evenodd" d="M10 0L10 2L11 2L11 0ZM12 0L12 1L15 1L15 2L14 2L14 4L15 4L15 5L14 5L14 8L12 8L12 7L13 7L13 5L11 5L11 6L10 6L10 4L11 4L11 3L8 3L8 4L9 4L9 5L8 5L8 7L9 7L9 8L6 8L6 9L10 9L10 11L11 11L11 9L12 9L12 12L13 12L13 13L11 13L11 12L9 12L9 13L8 13L8 14L6 14L6 15L5 15L5 18L4 18L4 14L5 14L5 13L7 13L7 12L8 12L8 11L7 11L7 10L6 10L6 11L5 11L5 13L4 13L4 10L5 10L5 8L0 8L0 11L1 11L1 12L0 12L0 13L1 13L1 14L0 14L0 15L1 15L1 14L2 14L2 16L0 16L0 21L1 21L1 18L2 18L2 20L3 20L3 21L4 21L4 20L5 20L5 21L8 21L8 23L10 23L10 26L9 26L9 24L8 24L8 29L9 29L9 27L10 27L10 29L11 29L11 27L10 27L10 26L13 26L13 27L12 27L12 28L13 28L13 29L14 29L14 28L15 28L15 27L16 27L16 29L17 29L17 27L18 27L18 28L21 28L21 29L22 29L22 28L21 28L21 25L25 25L25 26L22 26L22 27L23 27L23 29L24 29L24 27L25 27L25 28L26 28L26 29L27 29L27 28L28 28L28 26L29 26L29 25L28 25L28 23L27 23L27 22L29 22L29 20L28 20L28 19L27 19L27 16L28 16L28 15L27 15L27 12L28 12L28 11L27 11L27 12L25 12L25 13L21 13L21 12L22 12L22 11L23 11L23 12L24 12L24 11L25 11L25 9L26 9L26 8L25 8L25 9L24 9L24 8L23 8L23 9L22 9L22 8L20 8L20 9L18 9L18 8L16 8L16 7L17 7L17 6L18 6L18 7L19 7L19 6L18 6L18 5L20 5L20 3L21 3L21 0L18 0L18 2L19 2L19 4L18 4L18 3L17 3L17 2L16 2L16 1L17 1L17 0ZM8 1L8 2L9 2L9 1ZM19 1L19 2L20 2L20 1ZM12 2L12 4L13 4L13 2ZM15 2L15 4L17 4L17 5L16 5L16 6L15 6L15 7L16 7L16 6L17 6L17 5L18 5L18 4L17 4L17 3L16 3L16 2ZM9 6L9 7L10 7L10 6ZM11 6L11 7L12 7L12 6ZM20 6L20 7L21 7L21 6ZM10 8L10 9L11 9L11 8ZM14 8L14 9L13 9L13 12L14 12L14 13L13 13L13 14L11 14L11 13L9 13L9 16L8 16L8 17L6 17L6 18L7 18L7 19L5 19L5 20L8 20L8 21L9 21L9 19L10 19L10 21L13 21L13 22L10 22L10 23L12 23L12 24L11 24L11 25L13 25L13 26L14 26L14 27L13 27L13 28L14 28L14 27L15 27L15 26L14 26L14 25L15 25L15 24L16 24L16 25L17 25L17 26L19 26L19 27L20 27L20 23L19 23L19 22L18 22L18 23L17 23L17 22L16 22L16 23L15 23L15 22L14 22L14 21L15 21L15 20L16 20L16 21L17 21L17 20L18 20L18 19L19 19L19 20L22 20L22 19L23 19L23 20L24 20L24 19L25 19L25 21L26 21L26 20L27 20L27 19L25 19L25 18L24 18L24 19L23 19L23 18L22 18L22 17L26 17L26 16L27 16L27 15L26 15L26 13L25 13L25 16L24 16L24 15L23 15L23 16L22 16L22 14L21 14L21 13L20 13L20 12L21 12L21 9L20 9L20 10L18 10L18 9L15 9L15 8ZM27 8L27 9L28 9L28 10L29 10L29 9L28 9L28 8ZM1 9L1 11L3 11L3 10L4 10L4 9ZM14 9L14 10L15 10L15 11L14 11L14 12L15 12L15 11L16 11L16 12L17 12L17 13L14 13L14 14L13 14L13 15L12 15L12 16L13 16L13 17L11 17L11 18L10 18L10 16L9 16L9 17L8 17L8 18L10 18L10 19L11 19L11 20L13 20L13 21L14 21L14 20L15 20L15 19L16 19L16 18L17 18L17 17L18 17L18 16L19 16L19 15L18 15L18 14L20 14L20 13L18 13L18 12L17 12L17 11L16 11L16 10L15 10L15 9ZM23 10L23 11L24 11L24 10ZM6 11L6 12L7 12L7 11ZM2 13L2 14L4 14L4 13ZM28 13L28 14L29 14L29 13ZM16 14L16 15L15 15L15 16L14 16L14 15L13 15L13 16L14 16L14 17L13 17L13 18L11 18L11 19L13 19L13 20L14 20L14 19L13 19L13 18L14 18L14 17L17 17L17 16L18 16L18 15L17 15L17 14ZM6 15L6 16L7 16L7 15ZM2 16L2 17L3 17L3 16ZM20 16L20 17L19 17L19 18L20 18L20 17L21 17L21 16ZM28 17L28 18L29 18L29 17ZM21 18L21 19L22 19L22 18ZM21 21L21 24L24 24L24 21ZM13 22L13 23L14 23L14 24L13 24L13 25L14 25L14 24L15 24L15 23L14 23L14 22ZM22 22L22 23L23 23L23 22ZM16 23L16 24L17 24L17 25L19 25L19 24L17 24L17 23ZM26 23L26 24L25 24L25 25L26 25L26 24L27 24L27 23ZM27 25L27 26L25 26L25 27L26 27L26 28L27 28L27 26L28 26L28 25ZM0 0L0 7L7 7L7 0ZM1 1L1 6L6 6L6 1ZM2 2L2 5L5 5L5 2ZM22 0L22 7L29 7L29 0ZM23 1L23 6L28 6L28 1ZM24 2L24 5L27 5L27 2ZM0 22L0 29L7 29L7 22ZM1 23L1 28L6 28L6 23ZM2 24L2 27L5 27L5 24Z" fill="#000000"/></g></g></svg>
