<?xml version="1.0" encoding="UTF-8"?>
<svg xmlns="http://www.w3.org/2000/svg" version="1.1" width="300" height="300" viewBox="0 0 300 300"><rect x="0" y="0" width="300" height="300" fill="#ffffff"/><g transform="scale(10.345)"><g transform="translate(0,0)"><path fill-rule="evenodd" d="M9 0L9 1L8 1L8 3L9 3L9 4L8 4L8 8L6 8L6 9L8 9L8 8L10 8L10 10L9 10L9 11L11 11L11 10L12 10L12 9L13 9L13 13L14 13L14 14L11 14L11 13L12 13L12 12L11 12L11 13L10 13L10 15L8 15L8 16L6 16L6 17L5 17L5 18L4 18L4 17L2 17L2 16L3 16L3 15L2 15L2 14L3 14L3 13L4 13L4 16L5 16L5 15L7 15L7 14L8 14L8 13L7 13L7 12L8 12L8 10L5 10L5 9L4 9L4 8L3 8L3 9L2 9L2 8L0 8L0 9L2 9L2 10L3 10L3 9L4 9L4 10L5 10L5 11L7 11L7 12L3 12L3 11L2 11L2 12L0 12L0 13L1 13L1 17L2 17L2 18L3 18L3 19L8 19L8 23L9 23L9 25L8 25L8 26L9 26L9 25L10 25L10 26L11 26L11 27L8 27L8 29L9 29L9 28L10 28L10 29L11 29L11 28L12 28L12 26L11 26L11 23L9 23L9 20L12 20L12 19L8 19L8 18L9 18L9 17L10 17L10 18L12 18L12 17L11 17L11 16L14 16L14 17L13 17L13 19L14 19L14 20L13 20L13 22L14 22L14 23L12 23L12 24L13 24L13 25L14 25L14 26L13 26L13 28L14 28L14 29L17 29L17 28L18 28L18 27L19 27L19 24L20 24L20 28L19 28L19 29L21 29L21 27L22 27L22 26L24 26L24 28L23 28L23 29L24 29L24 28L25 28L25 29L26 29L26 28L25 28L25 26L27 26L27 25L25 25L25 20L24 20L24 17L22 17L22 16L24 16L24 15L25 15L25 17L26 17L26 15L27 15L27 17L28 17L28 18L27 18L27 20L26 20L26 22L27 22L27 23L26 23L26 24L28 24L28 25L29 25L29 24L28 24L28 22L29 22L29 21L27 21L27 20L29 20L29 17L28 17L28 15L29 15L29 14L27 14L27 13L29 13L29 12L28 12L28 10L29 10L29 9L28 9L28 8L26 8L26 9L25 9L25 8L22 8L22 9L21 9L21 8L20 8L20 9L21 9L21 10L19 10L19 11L18 11L18 12L17 12L17 11L15 11L15 10L18 10L18 9L17 9L17 8L19 8L19 6L20 6L20 7L21 7L21 4L20 4L20 5L19 5L19 3L21 3L21 1L20 1L20 0L18 0L18 1L15 1L15 2L14 2L14 3L13 3L13 0L12 0L12 1L11 1L11 2L9 2L9 1L10 1L10 0ZM18 1L18 3L17 3L17 2L15 2L15 3L16 3L16 4L15 4L15 5L14 5L14 4L13 4L13 3L12 3L12 4L9 4L9 5L10 5L10 6L9 6L9 7L10 7L10 8L11 8L11 9L12 9L12 6L13 6L13 8L14 8L14 9L16 9L16 8L17 8L17 7L18 7L18 6L17 6L17 7L16 7L16 6L15 6L15 5L16 5L16 4L17 4L17 5L18 5L18 3L19 3L19 2L20 2L20 1ZM11 5L11 6L10 6L10 7L11 7L11 6L12 6L12 5ZM14 6L14 8L15 8L15 6ZM23 9L23 11L22 11L22 10L21 10L21 11L22 11L22 12L23 12L23 13L22 13L22 15L21 15L21 12L18 12L18 13L16 13L16 14L15 14L15 16L17 16L17 15L18 15L18 17L17 17L17 18L15 18L15 17L14 17L14 19L18 19L18 20L17 20L17 22L15 22L15 23L14 23L14 24L15 24L15 25L16 25L16 26L14 26L14 27L15 27L15 28L16 28L16 27L18 27L18 26L17 26L17 24L18 24L18 23L20 23L20 21L18 21L18 20L23 20L23 19L22 19L22 17L21 17L21 16L22 16L22 15L24 15L24 14L25 14L25 15L26 15L26 13L27 13L27 12L26 12L26 13L25 13L25 12L23 12L23 11L24 11L24 10L25 10L25 9ZM26 9L26 10L28 10L28 9ZM0 10L0 11L1 11L1 10ZM14 11L14 12L15 12L15 11ZM2 12L2 13L3 13L3 12ZM5 13L5 14L7 14L7 13ZM19 13L19 14L20 14L20 13ZM16 14L16 15L17 15L17 14ZM10 15L10 16L11 16L11 15ZM19 15L19 17L18 17L18 18L19 18L19 17L20 17L20 19L21 19L21 17L20 17L20 15ZM8 16L8 17L9 17L9 16ZM6 17L6 18L7 18L7 17ZM0 18L0 19L1 19L1 18ZM25 18L25 19L26 19L26 18ZM0 20L0 21L1 21L1 20ZM6 20L6 21L7 21L7 20ZM14 20L14 21L16 21L16 20ZM10 21L10 22L11 22L11 21ZM21 21L21 24L24 24L24 21ZM17 22L17 23L18 23L18 22ZM22 22L22 23L23 23L23 22ZM21 25L21 26L22 26L22 25ZM28 26L28 27L27 27L27 29L28 29L28 27L29 27L29 26ZM0 0L0 7L7 7L7 0ZM1 1L1 6L6 6L6 1ZM2 2L2 5L5 5L5 2ZM22 0L22 7L29 7L29 0ZM23 1L23 6L28 6L28 1ZM24 2L24 5L27 5L27 2ZM0 22L0 29L7 29L7 22ZM1 23L1 28L6 28L6 23ZM2 24L2 27L5 27L5 24Z" fill="#000000"/></g></g></svg>
