<?xml version="1.0" encoding="UTF-8"?>
<svg xmlns="http://www.w3.org/2000/svg" version="1.1" width="300" height="300" viewBox="0 0 300 300"><rect x="0" y="0" width="300" height="300" fill="#ffffff"/><g transform="scale(10.345)"><g transform="translate(0,0)"><path fill-rule="evenodd" d="M8 0L8 1L9 1L9 2L10 2L10 3L11 3L11 1L13 1L13 0L11 0L11 1L9 1L9 0ZM15 0L15 1L14 1L14 2L12 2L12 4L11 4L11 5L10 5L10 4L9 4L9 5L10 5L10 8L9 8L9 6L8 6L8 8L9 8L9 10L8 10L8 9L7 9L7 8L6 8L6 9L5 9L5 8L3 8L3 9L2 9L2 8L0 8L0 9L2 9L2 10L1 10L1 11L0 11L0 12L1 12L1 11L2 11L2 13L0 13L0 14L2 14L2 15L1 15L1 16L0 16L0 21L8 21L8 22L9 22L9 24L8 24L8 26L9 26L9 27L8 27L8 29L9 29L9 27L10 27L10 25L11 25L11 26L14 26L14 25L16 25L16 26L15 26L15 28L13 28L13 27L12 27L12 28L10 28L10 29L12 29L12 28L13 28L13 29L15 29L15 28L16 28L16 29L18 29L18 28L20 28L20 29L22 29L22 28L24 28L24 27L25 27L25 28L27 28L27 27L28 27L28 28L29 28L29 23L28 23L28 24L27 24L27 27L26 27L26 26L23 26L23 27L21 27L21 26L22 26L22 25L26 25L26 21L28 21L28 20L27 20L27 19L24 19L24 20L23 20L23 18L22 18L22 17L21 17L21 18L20 18L20 17L19 17L19 19L18 19L18 17L17 17L17 19L18 19L18 20L16 20L16 21L17 21L17 22L19 22L19 23L20 23L20 24L18 24L18 23L17 23L17 24L18 24L18 25L19 25L19 26L17 26L17 25L16 25L16 22L13 22L13 21L11 21L11 19L12 19L12 20L14 20L14 19L12 19L12 18L13 18L13 17L14 17L14 18L15 18L15 19L16 19L16 18L15 18L15 16L13 16L13 14L14 14L14 15L18 15L18 16L19 16L19 15L20 15L20 16L22 16L22 15L20 15L20 14L21 14L21 13L20 13L20 12L19 12L19 13L17 13L17 12L18 12L18 10L20 10L20 11L22 11L22 14L23 14L23 15L24 15L24 16L23 16L23 17L24 17L24 18L28 18L28 19L29 19L29 18L28 18L28 17L24 17L24 16L25 16L25 15L26 15L26 16L27 16L27 14L28 14L28 16L29 16L29 11L28 11L28 13L27 13L27 14L26 14L26 13L24 13L24 12L23 12L23 11L25 11L25 9L23 9L23 8L22 8L22 9L23 9L23 10L21 10L21 6L20 6L20 7L19 7L19 6L18 6L18 7L19 7L19 9L18 9L18 8L17 8L17 5L21 5L21 2L20 2L20 1L19 1L19 0L17 0L17 1L18 1L18 2L20 2L20 3L19 3L19 4L18 4L18 3L17 3L17 2L15 2L15 1L16 1L16 0ZM14 2L14 3L13 3L13 4L12 4L12 5L11 5L11 7L12 7L12 8L13 8L13 10L12 10L12 9L10 9L10 10L9 10L9 11L8 11L8 10L7 10L7 9L6 9L6 10L7 10L7 11L6 11L6 12L4 12L4 13L6 13L6 14L8 14L8 15L5 15L5 14L4 14L4 15L3 15L3 16L2 16L2 20L5 20L5 19L6 19L6 20L7 20L7 19L8 19L8 18L9 18L9 19L11 19L11 18L12 18L12 17L13 17L13 16L12 16L12 17L11 17L11 15L12 15L12 14L11 14L11 13L14 13L14 14L16 14L16 12L17 12L17 11L15 11L15 13L14 13L14 10L18 10L18 9L17 9L17 8L16 8L16 9L15 9L15 8L13 8L13 7L14 7L14 6L15 6L15 7L16 7L16 5L14 5L14 6L13 6L13 7L12 7L12 5L13 5L13 4L15 4L15 2ZM16 3L16 4L17 4L17 3ZM28 8L28 9L26 9L26 11L27 11L27 10L28 10L28 9L29 9L29 8ZM3 9L3 11L5 11L5 10L4 10L4 9ZM10 10L10 11L9 11L9 13L8 13L8 11L7 11L7 12L6 12L6 13L8 13L8 14L9 14L9 15L10 15L10 12L13 12L13 11L12 11L12 10ZM19 13L19 14L18 14L18 15L19 15L19 14L20 14L20 13ZM4 16L4 17L3 17L3 19L4 19L4 17L5 17L5 18L6 18L6 19L7 19L7 18L8 18L8 17L9 17L9 18L10 18L10 17L9 17L9 16ZM6 17L6 18L7 18L7 17ZM8 20L8 21L9 21L9 22L10 22L10 23L11 23L11 21L10 21L10 20ZM19 20L19 21L20 21L20 20ZM21 21L21 24L24 24L24 21ZM12 22L12 25L14 25L14 23L13 23L13 22ZM22 22L22 23L23 23L23 22ZM9 24L9 25L10 25L10 24ZM20 25L20 26L21 26L21 25ZM16 26L16 28L18 28L18 27L17 27L17 26ZM20 27L20 28L21 28L21 27ZM0 0L0 7L7 7L7 0ZM1 1L1 6L6 6L6 1ZM2 2L2 5L5 5L5 2ZM22 0L22 7L29 7L29 0ZM23 1L23 6L28 6L28 1ZM24 2L24 5L27 5L27 2ZM0 22L0 29L7 29L7 22ZM1 23L1 28L6 28L6 23ZM2 24L2 27L5 27L5 24Z" fill="#000000"/></g></g></svg>
