<?xml version="1.0" encoding="UTF-8"?>
<svg xmlns="http://www.w3.org/2000/svg" version="1.1" width="300" height="300" viewBox="0 0 300 300"><rect x="0" y="0" width="300" height="300" fill="#ffffff"/><g transform="scale(10.345)"><g transform="translate(0,0)"><path fill-rule="evenodd" d="M8 0L8 4L10 4L10 3L11 3L11 4L12 4L12 2L11 2L11 0ZM12 0L12 1L13 1L13 2L14 2L14 3L13 3L13 5L11 5L11 6L10 6L10 7L9 7L9 5L8 5L8 7L9 7L9 8L10 8L10 7L11 7L11 6L12 6L12 8L11 8L11 9L7 9L7 8L4 8L4 9L3 9L3 10L2 10L2 8L0 8L0 11L1 11L1 12L3 12L3 10L4 10L4 11L5 11L5 10L4 10L4 9L7 9L7 10L6 10L6 11L7 11L7 12L5 12L5 14L6 14L6 15L8 15L8 16L5 16L5 15L3 15L3 16L5 16L5 19L3 19L3 20L0 20L0 21L4 21L4 20L5 20L5 19L7 19L7 18L8 18L8 17L9 17L9 18L10 18L10 19L9 19L9 20L8 20L8 22L9 22L9 23L8 23L8 25L9 25L9 27L8 27L8 29L9 29L9 28L10 28L10 25L9 25L9 23L10 23L10 24L11 24L11 25L12 25L12 26L11 26L11 28L12 28L12 29L14 29L14 27L15 27L15 28L17 28L17 29L18 29L18 27L16 27L16 26L17 26L17 25L19 25L19 26L20 26L20 27L19 27L19 29L21 29L21 26L22 26L22 25L26 25L26 23L27 23L27 24L28 24L28 26L27 26L27 29L28 29L28 28L29 28L29 17L28 17L28 16L29 16L29 13L28 13L28 12L29 12L29 8L25 8L25 9L24 9L24 8L23 8L23 9L22 9L22 10L21 10L21 9L20 9L20 8L19 8L19 6L20 6L20 7L21 7L21 4L20 4L20 3L21 3L21 2L20 2L20 1L19 1L19 0L18 0L18 2L17 2L17 3L18 3L18 5L16 5L16 2L15 2L15 1L17 1L17 0ZM9 2L9 3L10 3L10 2ZM14 4L14 5L13 5L13 8L12 8L12 9L11 9L11 10L9 10L9 11L8 11L8 12L7 12L7 13L6 13L6 14L8 14L8 15L9 15L9 13L10 13L10 14L11 14L11 16L12 16L12 17L11 17L11 18L12 18L12 17L13 17L13 18L14 18L14 17L13 17L13 16L15 16L15 17L17 17L17 18L19 18L19 19L18 19L18 20L19 20L19 22L20 22L20 20L23 20L23 19L24 19L24 20L26 20L26 21L25 21L25 22L27 22L27 23L28 23L28 20L27 20L27 19L28 19L28 18L27 18L27 15L28 15L28 14L27 14L27 11L28 11L28 10L24 10L24 11L23 11L23 10L22 10L22 11L23 11L23 12L22 12L22 13L21 13L21 10L20 10L20 9L19 9L19 8L18 8L18 9L16 9L16 5L15 5L15 4ZM19 4L19 5L18 5L18 6L17 6L17 7L18 7L18 6L19 6L19 5L20 5L20 4ZM14 5L14 8L15 8L15 5ZM12 9L12 10L11 10L11 11L10 11L10 13L11 13L11 12L12 12L12 13L13 13L13 15L12 15L12 16L13 16L13 15L17 15L17 17L18 17L18 15L19 15L19 13L20 13L20 14L21 14L21 13L20 13L20 12L19 12L19 9L18 9L18 10L16 10L16 9ZM1 10L1 11L2 11L2 10ZM13 10L13 11L12 11L12 12L13 12L13 13L16 13L16 14L17 14L17 15L18 15L18 14L17 14L17 13L16 13L16 11L14 11L14 10ZM24 11L24 12L25 12L25 11ZM18 12L18 13L19 13L19 12ZM0 13L0 14L1 14L1 13ZM2 13L2 14L4 14L4 13ZM22 13L22 14L26 14L26 15L27 15L27 14L26 14L26 13ZM23 15L23 16L24 16L24 15ZM0 16L0 18L1 18L1 17L2 17L2 16ZM19 16L19 17L20 17L20 18L21 18L21 19L23 19L23 18L24 18L24 19L27 19L27 18L25 18L25 17L26 17L26 16L25 16L25 17L22 17L22 16L21 16L21 17L20 17L20 16ZM6 17L6 18L7 18L7 17ZM12 19L12 20L11 20L11 22L10 22L10 23L11 23L11 24L12 24L12 25L13 25L13 26L15 26L15 25L16 25L16 23L18 23L18 22L16 22L16 23L15 23L15 22L13 22L13 21L12 21L12 20L13 20L13 19ZM14 19L14 21L17 21L17 19L16 19L16 20L15 20L15 19ZM6 20L6 21L7 21L7 20ZM9 20L9 21L10 21L10 20ZM21 21L21 24L24 24L24 21ZM22 22L22 23L23 23L23 22ZM12 23L12 24L13 24L13 25L15 25L15 23L14 23L14 24L13 24L13 23ZM19 23L19 24L20 24L20 23ZM20 25L20 26L21 26L21 25ZM12 27L12 28L13 28L13 27ZM22 27L22 28L23 28L23 29L24 29L24 28L25 28L25 29L26 29L26 27L24 27L24 28L23 28L23 27ZM0 0L0 7L7 7L7 0ZM1 1L1 6L6 6L6 1ZM2 2L2 5L5 5L5 2ZM22 0L22 7L29 7L29 0ZM23 1L23 6L28 6L28 1ZM24 2L24 5L27 5L27 2ZM0 22L0 29L7 29L7 22ZM1 23L1 28L6 28L6 23ZM2 24L2 27L5 27L5 24Z" fill="#000000"/></g></g></svg>
