<?xml version="1.0" encoding="UTF-8"?>
<svg xmlns="http://www.w3.org/2000/svg" version="1.1" width="300" height="300" viewBox="0 0 300 300"><rect x="0" y="0" width="300" height="300" fill="#ffffff"/><g transform="scale(10.345)"><g transform="translate(0,0)"><path fill-rule="evenodd" d="M10 0L10 2L11 2L11 0ZM12 0L12 1L13 1L13 0ZM15 0L15 1L14 1L14 4L15 4L15 5L14 5L14 8L12 8L12 7L13 7L13 5L11 5L11 6L10 6L10 4L11 4L11 3L8 3L8 4L9 4L9 5L8 5L8 7L9 7L9 8L6 8L6 9L7 9L7 10L6 10L6 11L7 11L7 12L5 12L5 10L3 10L3 9L5 9L5 8L0 8L0 9L1 9L1 10L3 10L3 11L2 11L2 12L1 12L1 11L0 11L0 12L1 12L1 13L2 13L2 14L1 14L1 15L0 15L0 16L1 16L1 17L0 17L0 21L1 21L1 17L3 17L3 16L2 16L2 14L3 14L3 15L4 15L4 13L8 13L8 14L5 14L5 17L4 17L4 19L5 19L5 20L6 20L6 21L7 21L7 20L8 20L8 23L9 23L9 24L8 24L8 29L11 29L11 28L12 28L12 27L10 27L10 28L9 28L9 25L10 25L10 26L13 26L13 27L14 27L14 28L13 28L13 29L14 29L14 28L15 28L15 29L17 29L17 26L18 26L18 27L19 27L19 28L21 28L21 29L22 29L22 28L21 28L21 25L25 25L25 26L22 26L22 27L23 27L23 29L24 29L24 27L25 27L25 28L26 28L26 29L27 29L27 28L28 28L28 26L29 26L29 25L28 25L28 23L27 23L27 22L29 22L29 20L28 20L28 19L27 19L27 16L28 16L28 15L27 15L27 12L28 12L28 11L27 11L27 12L25 12L25 13L21 13L21 12L22 12L22 11L23 11L23 12L24 12L24 11L25 11L25 9L26 9L26 8L25 8L25 9L24 9L24 8L23 8L23 9L22 9L22 8L20 8L20 9L18 9L18 8L17 8L17 6L18 6L18 7L19 7L19 6L18 6L18 5L20 5L20 3L21 3L21 0L18 0L18 2L19 2L19 4L18 4L18 3L17 3L17 4L16 4L16 3L15 3L15 2L17 2L17 0ZM8 1L8 2L9 2L9 1ZM19 1L19 2L20 2L20 1ZM12 2L12 4L13 4L13 2ZM17 4L17 5L16 5L16 6L15 6L15 8L14 8L14 9L13 9L13 10L12 10L12 9L11 9L11 8L10 8L10 9L9 9L9 10L7 10L7 11L9 11L9 12L12 12L12 13L13 13L13 14L11 14L11 13L10 13L10 14L8 14L8 16L7 16L7 15L6 15L6 16L7 16L7 17L6 17L6 18L9 18L9 16L11 16L11 17L13 17L13 18L14 18L14 17L15 17L15 18L16 18L16 20L14 20L14 19L13 19L13 20L12 20L12 18L11 18L11 19L8 19L8 20L9 20L9 21L10 21L10 22L9 22L9 23L10 23L10 22L11 22L11 23L12 23L12 24L11 24L11 25L13 25L13 26L14 26L14 27L15 27L15 28L16 28L16 27L15 27L15 26L14 26L14 25L19 25L19 27L20 27L20 23L19 23L19 22L18 22L18 23L17 23L17 22L16 22L16 23L15 23L15 22L14 22L14 21L17 21L17 20L18 20L18 19L19 19L19 20L22 20L22 19L23 19L23 20L24 20L24 19L25 19L25 21L26 21L26 20L27 20L27 19L25 19L25 18L24 18L24 19L23 19L23 18L22 18L22 17L26 17L26 16L27 16L27 15L26 15L26 13L25 13L25 16L24 16L24 15L23 15L23 16L22 16L22 14L21 14L21 13L20 13L20 12L21 12L21 9L20 9L20 10L18 10L18 9L17 9L17 11L15 11L15 10L14 10L14 9L15 9L15 8L16 8L16 6L17 6L17 5L18 5L18 4ZM9 6L9 7L10 7L10 6ZM11 6L11 7L12 7L12 6ZM20 6L20 7L21 7L21 6ZM27 8L27 9L28 9L28 10L29 10L29 9L28 9L28 8ZM10 9L10 11L11 11L11 9ZM23 10L23 11L24 11L24 10ZM3 11L3 12L2 12L2 13L3 13L3 12L4 12L4 11ZM12 11L12 12L13 12L13 13L14 13L14 14L13 14L13 15L12 15L12 16L13 16L13 17L14 17L14 16L15 16L15 17L18 17L18 16L19 16L19 15L18 15L18 14L20 14L20 13L18 13L18 12L15 12L15 11L14 11L14 12L13 12L13 11ZM14 12L14 13L15 13L15 14L17 14L17 13L15 13L15 12ZM28 13L28 14L29 14L29 13ZM10 14L10 15L11 15L11 14ZM13 15L13 16L14 16L14 15ZM15 15L15 16L18 16L18 15ZM20 16L20 17L19 17L19 18L20 18L20 17L21 17L21 16ZM28 17L28 18L29 18L29 17ZM2 18L2 19L3 19L3 18ZM21 18L21 19L22 19L22 18ZM6 19L6 20L7 20L7 19ZM3 20L3 21L4 21L4 20ZM11 20L11 22L12 22L12 23L14 23L14 24L13 24L13 25L14 25L14 24L15 24L15 23L14 23L14 22L13 22L13 21L14 21L14 20L13 20L13 21L12 21L12 20ZM21 21L21 24L24 24L24 21ZM22 22L22 23L23 23L23 22ZM16 23L16 24L17 24L17 23ZM26 23L26 24L25 24L25 25L26 25L26 24L27 24L27 23ZM27 25L27 26L25 26L25 27L26 27L26 28L27 28L27 26L28 26L28 25ZM0 0L0 7L7 7L7 0ZM1 1L1 6L6 6L6 1ZM2 2L2 5L5 5L5 2ZM22 0L22 7L29 7L29 0ZM23 1L23 6L28 6L28 1ZM24 2L24 5L27 5L27 2ZM0 22L0 29L7 29L7 22ZM1 23L1 28L6 28L6 23ZM2 24L2 27L5 27L5 24Z" fill="#000000"/></g></g></svg>
