<?xml version="1.0" encoding="UTF-8"?>
<svg xmlns="http://www.w3.org/2000/svg" version="1.1" width="300" height="300" viewBox="0 0 300 300"><rect x="0" y="0" width="300" height="300" fill="#ffffff"/><g transform="scale(10.345)"><g transform="translate(0,0)"><path fill-rule="evenodd" d="M9 0L9 1L8 1L8 3L9 3L9 4L8 4L8 8L6 8L6 9L8 9L8 11L11 11L11 10L12 10L12 11L13 11L13 13L14 13L14 14L13 14L13 16L14 16L14 17L13 17L13 19L14 19L14 20L13 20L13 22L12 22L12 24L13 24L13 25L14 25L14 27L13 27L13 26L11 26L11 24L10 24L10 22L9 22L9 21L12 21L12 20L9 20L9 21L8 21L8 23L9 23L9 25L8 25L8 26L10 26L10 27L8 27L8 29L11 29L11 28L12 28L12 27L13 27L13 28L14 28L14 29L21 29L21 27L22 27L22 26L24 26L24 28L23 28L23 29L24 29L24 28L25 28L25 29L26 29L26 28L25 28L25 26L27 26L27 25L25 25L25 20L24 20L24 17L22 17L22 16L24 16L24 15L25 15L25 17L26 17L26 15L27 15L27 17L28 17L28 18L27 18L27 20L26 20L26 22L27 22L27 23L26 23L26 24L28 24L28 25L29 25L29 24L28 24L28 22L29 22L29 21L27 21L27 20L29 20L29 17L28 17L28 15L29 15L29 14L27 14L27 13L29 13L29 12L28 12L28 10L29 10L29 9L28 9L28 8L26 8L26 9L25 9L25 8L22 8L22 9L21 9L21 8L20 8L20 9L21 9L21 10L19 10L19 11L18 11L18 12L17 12L17 10L18 10L18 9L17 9L17 8L19 8L19 6L20 6L20 7L21 7L21 4L20 4L20 5L19 5L19 3L21 3L21 1L20 1L20 0L18 0L18 1L15 1L15 0L14 0L14 3L15 3L15 2L16 2L16 5L14 5L14 4L13 4L13 6L12 6L12 5L11 5L11 6L10 6L10 5L9 5L9 4L12 4L12 3L13 3L13 0L12 0L12 1L11 1L11 2L9 2L9 1L10 1L10 0ZM18 1L18 3L17 3L17 5L16 5L16 6L15 6L15 7L16 7L16 8L17 8L17 7L18 7L18 6L17 6L17 5L18 5L18 3L19 3L19 2L20 2L20 1ZM9 6L9 7L10 7L10 8L8 8L8 9L9 9L9 10L10 10L10 8L11 8L11 9L12 9L12 10L13 10L13 9L12 9L12 6L11 6L11 7L10 7L10 6ZM13 6L13 8L14 8L14 9L15 9L15 8L14 8L14 6ZM16 6L16 7L17 7L17 6ZM0 8L0 9L2 9L2 10L0 10L0 11L2 11L2 10L3 10L3 12L4 12L4 13L2 13L2 14L1 14L1 12L0 12L0 17L1 17L1 18L0 18L0 19L1 19L1 18L2 18L2 21L3 21L3 20L4 20L4 21L5 21L5 20L4 20L4 19L3 19L3 18L2 18L2 17L3 17L3 16L4 16L4 18L6 18L6 19L7 19L7 20L6 20L6 21L7 21L7 20L8 20L8 18L9 18L9 19L11 19L11 18L12 18L12 17L10 17L10 14L11 14L11 16L12 16L12 14L11 14L11 13L12 13L12 12L11 12L11 13L10 13L10 14L9 14L9 13L8 13L8 12L6 12L6 13L5 13L5 12L4 12L4 11L7 11L7 10L3 10L3 9L4 9L4 8L3 8L3 9L2 9L2 8ZM23 9L23 11L22 11L22 10L21 10L21 11L22 11L22 12L23 12L23 13L22 13L22 15L21 15L21 12L18 12L18 13L17 13L17 12L15 12L15 11L16 11L16 10L15 10L15 11L14 11L14 12L15 12L15 15L16 15L16 16L15 16L15 17L14 17L14 19L18 19L18 20L14 20L14 21L17 21L17 22L15 22L15 23L14 23L14 22L13 22L13 23L14 23L14 24L15 24L15 27L14 27L14 28L15 28L15 27L16 27L16 28L17 28L17 27L16 27L16 25L19 25L19 26L18 26L18 28L20 28L20 24L18 24L18 23L20 23L20 21L18 21L18 20L23 20L23 19L22 19L22 17L21 17L21 16L22 16L22 15L24 15L24 14L25 14L25 15L26 15L26 13L27 13L27 12L26 12L26 13L25 13L25 12L23 12L23 11L24 11L24 10L25 10L25 9ZM26 9L26 10L28 10L28 9ZM6 13L6 14L7 14L7 13ZM16 13L16 14L17 14L17 13ZM19 13L19 14L20 14L20 13ZM2 14L2 16L3 16L3 15L4 15L4 16L7 16L7 15L5 15L5 14ZM8 14L8 15L9 15L9 14ZM17 15L17 17L15 17L15 18L17 18L17 17L18 17L18 18L19 18L19 17L20 17L20 19L21 19L21 17L20 17L20 15L19 15L19 17L18 17L18 15ZM8 16L8 17L6 17L6 18L8 18L8 17L9 17L9 16ZM25 18L25 19L26 19L26 18ZM0 20L0 21L1 21L1 20ZM21 21L21 24L24 24L24 21ZM17 22L17 23L18 23L18 22ZM22 22L22 23L23 23L23 22ZM21 25L21 26L22 26L22 25ZM28 26L28 27L27 27L27 29L28 29L28 27L29 27L29 26ZM0 0L0 7L7 7L7 0ZM1 1L1 6L6 6L6 1ZM2 2L2 5L5 5L5 2ZM22 0L22 7L29 7L29 0ZM23 1L23 6L28 6L28 1ZM24 2L24 5L27 5L27 2ZM0 22L0 29L7 29L7 22ZM1 23L1 28L6 28L6 23ZM2 24L2 27L5 27L5 24Z" fill="#000000"/></g></g></svg>
