<?xml version="1.0" encoding="UTF-8"?>
<svg xmlns="http://www.w3.org/2000/svg" version="1.1" width="300" height="300" viewBox="0 0 300 300"><rect x="0" y="0" width="300" height="300" fill="#ffffff"/><g transform="scale(10.345)"><g transform="translate(0,0)"><path fill-rule="evenodd" d="M8 0L8 1L9 1L9 2L8 2L8 5L9 5L9 4L11 4L11 5L10 5L10 10L9 10L9 13L8 13L8 12L6 12L6 13L7 13L7 14L4 14L4 15L3 15L3 16L2 16L2 17L1 17L1 18L0 18L0 19L1 19L1 18L2 18L2 17L3 17L3 16L4 16L4 18L3 18L3 19L2 19L2 20L1 20L1 21L5 21L5 19L8 19L8 20L9 20L9 21L8 21L8 22L10 22L10 23L9 23L9 25L8 25L8 29L15 29L15 28L17 28L17 29L19 29L19 28L20 28L20 29L21 29L21 27L22 27L22 25L23 25L23 28L24 28L24 29L25 29L25 28L26 28L26 25L27 25L27 24L26 24L26 25L25 25L25 23L26 23L26 22L27 22L27 23L28 23L28 22L29 22L29 21L27 21L27 18L28 18L28 15L29 15L29 13L27 13L27 12L26 12L26 11L28 11L28 12L29 12L29 11L28 11L28 10L29 10L29 8L28 8L28 10L26 10L26 11L24 11L24 10L25 10L25 9L27 9L27 8L24 8L24 9L22 9L22 8L21 8L21 6L20 6L20 5L21 5L21 4L20 4L20 3L21 3L21 2L20 2L20 3L19 3L19 2L18 2L18 1L21 1L21 0L18 0L18 1L17 1L17 2L18 2L18 3L17 3L17 4L16 4L16 5L17 5L17 6L16 6L16 7L15 7L15 5L14 5L14 7L15 7L15 8L17 8L17 9L18 9L18 10L17 10L17 11L14 11L14 10L15 10L15 9L14 9L14 10L13 10L13 6L12 6L12 5L13 5L13 4L14 4L14 3L16 3L16 2L15 2L15 0L14 0L14 2L13 2L13 0L12 0L12 1L11 1L11 0L10 0L10 1L9 1L9 0ZM11 2L11 4L12 4L12 3L13 3L13 2ZM18 3L18 5L19 5L19 3ZM8 6L8 7L9 7L9 6ZM11 6L11 8L12 8L12 6ZM17 6L17 7L18 7L18 6ZM19 6L19 8L20 8L20 6ZM0 8L0 9L1 9L1 10L0 10L0 11L1 11L1 12L0 12L0 15L2 15L2 14L1 14L1 13L5 13L5 11L8 11L8 9L9 9L9 8L8 8L8 9L7 9L7 8L6 8L6 9L4 9L4 8ZM3 9L3 10L4 10L4 9ZM6 9L6 10L7 10L7 9ZM11 9L11 10L12 10L12 9ZM20 9L20 10L19 10L19 11L20 11L20 12L18 12L18 11L17 11L17 12L18 12L18 13L17 13L17 14L19 14L19 13L20 13L20 12L21 12L21 14L20 14L20 15L19 15L19 18L18 18L18 15L17 15L17 16L16 16L16 13L15 13L15 12L14 12L14 13L13 13L13 14L12 14L12 16L11 16L11 13L12 13L12 12L13 12L13 11L11 11L11 13L9 13L9 15L10 15L10 18L8 18L8 19L10 19L10 21L12 21L12 19L13 19L13 22L12 22L12 23L14 23L14 21L15 21L15 24L14 24L14 25L13 25L13 24L11 24L11 23L10 23L10 24L11 24L11 25L9 25L9 26L11 26L11 28L12 28L12 27L13 27L13 28L15 28L15 27L17 27L17 28L18 28L18 27L19 27L19 26L21 26L21 25L20 25L20 24L18 24L18 22L17 22L17 20L16 20L16 19L18 19L18 21L20 21L20 19L21 19L21 16L22 16L22 19L23 19L23 16L24 16L24 15L25 15L25 17L24 17L24 20L26 20L26 19L25 19L25 18L26 18L26 17L27 17L27 15L25 15L25 14L27 14L27 13L25 13L25 12L22 12L22 10L21 10L21 9ZM1 10L1 11L2 11L2 10ZM20 10L20 11L21 11L21 10ZM22 13L22 14L21 14L21 15L22 15L22 16L23 16L23 15L24 15L24 14L23 14L23 13ZM7 14L7 15L6 15L6 16L7 16L7 15L8 15L8 14ZM22 14L22 15L23 15L23 14ZM4 15L4 16L5 16L5 15ZM14 15L14 16L13 16L13 19L14 19L14 18L15 18L15 19L16 19L16 18L15 18L15 17L16 17L16 16L15 16L15 15ZM8 16L8 17L9 17L9 16ZM5 17L5 18L4 18L4 19L3 19L3 20L4 20L4 19L5 19L5 18L7 18L7 17ZM6 20L6 21L7 21L7 20ZM21 21L21 24L24 24L24 21ZM16 22L16 24L17 24L17 22ZM22 22L22 23L23 23L23 22ZM28 24L28 27L27 27L27 29L28 29L28 27L29 27L29 24ZM16 25L16 26L17 26L17 25ZM18 25L18 26L19 26L19 25ZM24 26L24 28L25 28L25 26ZM9 27L9 28L10 28L10 27ZM0 0L0 7L7 7L7 0ZM1 1L1 6L6 6L6 1ZM2 2L2 5L5 5L5 2ZM22 0L22 7L29 7L29 0ZM23 1L23 6L28 6L28 1ZM24 2L24 5L27 5L27 2ZM0 22L0 29L7 29L7 22ZM1 23L1 28L6 28L6 23ZM2 24L2 27L5 27L5 24Z" fill="#000000"/></g></g></svg>
